<svg width="18" height="18" viewBox="0 0 18 18" fill="none" xmlns="http://www.w3.org/2000/svg">
<path d="M4.89773 16.6246C3.54766 15.841 2.47994 14.7737 1.69599 13.4244C0.912035 12.0749 0.52013 10.6 0.52013 8.9999C0.52013 7.39981 0.912035 5.92493 1.69599 4.57557C2.47994 3.22607 3.54766 2.16018 4.89773 1.37524C6.2478 0.591715 7.72337 0.199951 9.32417 0.199951C9.69645 0.199951 10.0593 0.223669 10.4156 0.272516C10.5609 0.288328 10.6744 0.352987 10.7549 0.466351C10.8353 0.579857 10.8604 0.709175 10.8274 0.854163L10.4395 2.96348C10.3906 3.22211 10.2295 3.35129 9.95382 3.35129L9.3229 3.32757C8.30403 3.32757 7.35914 3.58226 6.48539 4.09134C5.61165 4.60056 4.92144 5.29176 4.41208 6.16381C3.90258 7.03571 3.64789 7.98159 3.64789 8.9999C3.64789 10.0183 3.90258 10.9628 4.41208 11.8361C4.92144 12.7093 5.61307 13.3992 6.48539 13.9085C7.35772 14.4177 8.30403 14.6722 9.3229 14.6722C10.5027 14.6722 11.5375 14.3372 12.4269 13.6658C13.3165 12.9956 13.9711 12.1025 14.3908 10.9865H11.2617C11.1324 10.9865 11.0189 10.9377 10.9224 10.8414C10.8261 10.7451 10.7773 10.6318 10.7773 10.5024V8.7335C10.7773 8.60418 10.8261 8.49067 10.9224 8.39439C11.0201 8.29811 11.1324 8.24926 11.2617 8.24926H16.4272C16.8153 8.24926 17.1148 8.31392 17.3246 8.44324C17.5344 8.57256 17.64 8.75849 17.64 9.00117C17.64 10.6172 17.2837 12.0959 16.5723 13.4375C15.8611 14.7791 14.8699 15.841 13.6015 16.6246C12.3319 17.4081 10.9053 17.7998 9.32163 17.7998C7.72196 17.7998 6.24652 17.4081 4.89773 16.6246Z" fill="#EDC666"/>
</svg>
