<svg width="14" height="14" viewBox="0 0 14 14" fill="none" xmlns="http://www.w3.org/2000/svg">
<path d="M13.4733 6.53999L11.4733 4.53999C11.3478 4.41446 11.1775 4.34393 11 4.34393C10.8225 4.34393 10.6522 4.41446 10.5267 4.53999C10.4011 4.66553 10.3306 4.83579 10.3306 5.01332C10.3306 5.19086 10.4011 5.36112 10.5267 5.48666L11.3867 6.33332H7.66666V2.60666L8.52666 3.47332C8.58895 3.53511 8.66283 3.584 8.74405 3.61717C8.82528 3.65035 8.91225 3.66716 8.99999 3.66666C9.08773 3.66716 9.1747 3.65035 9.25593 3.61717C9.33715 3.584 9.41103 3.53511 9.47332 3.47332C9.53581 3.41135 9.58541 3.33762 9.61925 3.25638C9.6531 3.17514 9.67052 3.088 9.67052 2.99999C9.67052 2.91198 9.6531 2.82485 9.61925 2.74361C9.58541 2.66237 9.53581 2.58863 9.47332 2.52666L7.47332 0.526657C7.41103 0.46487 7.33715 0.415986 7.25593 0.38281C7.1747 0.349634 7.08773 0.332817 6.99999 0.333324C6.8251 0.334061 6.6575 0.403495 6.53332 0.526657L4.53332 2.52666C4.47117 2.58838 4.42177 2.66174 4.38796 2.74255C4.35416 2.82336 4.3366 2.91004 4.33629 2.99763C4.33598 3.08523 4.35292 3.17203 4.38616 3.25308C4.4194 3.33412 4.46827 3.40783 4.52999 3.46999C4.59171 3.53215 4.66507 3.58154 4.74588 3.61535C4.82669 3.64916 4.91337 3.66672 5.00097 3.66703C5.17788 3.66765 5.34779 3.59798 5.47332 3.47332L6.33332 2.61332V6.33332H2.60666L3.47332 5.47332C3.59886 5.34779 3.66939 5.17753 3.66939 4.99999C3.66939 4.82246 3.59886 4.65219 3.47332 4.52666C3.34779 4.40112 3.17753 4.3306 2.99999 4.3306C2.82246 4.3306 2.65219 4.40112 2.52666 4.52666L0.526657 6.52666C0.46487 6.58895 0.415986 6.66283 0.38281 6.74405C0.349634 6.82528 0.332817 6.91225 0.333324 6.99999C0.332817 7.08773 0.349634 7.1747 0.38281 7.25593C0.415986 7.33715 0.46487 7.41103 0.526657 7.47332L2.52666 9.47332C2.58895 9.53511 2.66283 9.584 2.74405 9.61717C2.82528 9.65035 2.91225 9.66717 2.99999 9.66666C3.08773 9.66717 3.1747 9.65035 3.25593 9.61717C3.33715 9.584 3.41103 9.53511 3.47332 9.47332C3.53581 9.41135 3.58541 9.33762 3.61925 9.25638C3.6531 9.17514 3.67052 9.088 3.67052 8.99999C3.67052 8.91198 3.6531 8.82485 3.61925 8.74361C3.58541 8.66237 3.53581 8.58863 3.47332 8.52666L2.61332 7.66666H6.33332V11.3933L5.47332 10.5267C5.41117 10.4645 5.33737 10.4152 5.25616 10.3816C5.17494 10.3479 5.0879 10.3306 4.99999 10.3306C4.91208 10.3306 4.82504 10.3479 4.74382 10.3816C4.66261 10.4152 4.58882 10.4645 4.52666 10.5267C4.4645 10.5888 4.41519 10.6626 4.38155 10.7438C4.34791 10.825 4.3306 10.9121 4.3306 11C4.3306 11.0879 4.34791 11.1749 4.38155 11.2562C4.41519 11.3374 4.4645 11.4112 4.52666 11.4733L6.52666 13.4733C6.58895 13.5351 6.66283 13.584 6.74405 13.6172C6.82528 13.6503 6.91225 13.6672 6.99999 13.6667C7.17488 13.6659 7.34248 13.5965 7.46666 13.4733L9.46666 11.4733C9.59219 11.3478 9.66272 11.1775 9.66272 11C9.66272 10.8225 9.59219 10.6522 9.46666 10.5267C9.34112 10.4011 9.17086 10.3306 8.99332 10.3306C8.81579 10.3306 8.64553 10.4011 8.51999 10.5267L7.66666 11.3867V7.66666H11.3933L10.5267 8.52666C10.4642 8.58863 10.4146 8.66237 10.3807 8.74361C10.3469 8.82485 10.3295 8.91198 10.3295 8.99999C10.3295 9.088 10.3469 9.17514 10.3807 9.25638C10.4146 9.33762 10.4642 9.41135 10.5267 9.47332C10.589 9.53511 10.6628 9.584 10.7441 9.61717C10.8253 9.65035 10.9123 9.66717 11 9.66666C11.0877 9.66717 11.1747 9.65035 11.2559 9.61717C11.3372 9.584 11.411 9.53511 11.4733 9.47332L13.4733 7.47332C13.5351 7.41103 13.584 7.33715 13.6172 7.25593C13.6503 7.1747 13.6672 7.08773 13.6667 6.99999C13.6642 6.82741 13.5949 6.66252 13.4733 6.53999Z" fill="#C8D3DC"/>
</svg>
