<svg width="14" height="10" viewBox="0 0 14 10" fill="none" xmlns="http://www.w3.org/2000/svg">
<path d="M13.413 4.68004C12.9971 3.96669 10.71 0.387063 6.82457 0.502742C3.2315 0.592714 1.15232 3.71605 0.587049 4.68004C0.530022 4.77774 0.5 4.88856 0.5 5.00137C0.5 5.11418 0.530022 5.225 0.587049 5.3227C0.996386 6.0232 3.18602 9.5 7.013 9.5H7.17543C10.7685 9.41003 12.8542 6.28669 13.413 5.3227C13.47 5.225 13.5 5.11418 13.5 5.00137C13.5 4.88856 13.47 4.77774 13.413 4.68004ZM7.14294 8.21468C4.34256 8.27894 2.51678 5.90752 1.94501 5.00137C2.59475 3.96669 4.29058 1.85233 6.88954 1.78806C9.67694 1.71737 11.5092 4.09522 12.0875 5.00137C11.4182 6.03606 9.74191 8.15041 7.14294 8.21468Z" fill="white"/>
<path d="M7 2.75206C6.55023 2.75206 6.11055 2.88398 5.73658 3.13113C5.36261 3.37829 5.07113 3.72959 4.89901 4.1406C4.72689 4.5516 4.68185 5.00387 4.7696 5.44019C4.85735 5.87651 5.07393 6.2773 5.39197 6.59188C5.71001 6.90645 6.11521 7.12068 6.55635 7.20747C6.99748 7.29426 7.45472 7.24971 7.87026 7.07947C8.2858 6.90922 8.64096 6.62092 8.89084 6.25102C9.14072 5.88113 9.2741 5.44624 9.2741 5.00137C9.2741 4.40482 9.0345 3.83269 8.60803 3.41087C8.18155 2.98904 7.60313 2.75206 7 2.75206ZM7 5.96536C6.80724 5.96536 6.61881 5.90883 6.45853 5.8029C6.29826 5.69698 6.17334 5.54642 6.09958 5.37028C6.02581 5.19413 6.00651 5.0003 6.04411 4.81331C6.08172 4.62631 6.17454 4.45454 6.31084 4.31973C6.44715 4.18491 6.62081 4.0931 6.80986 4.0559C6.99892 4.01871 7.19488 4.0378 7.37297 4.11076C7.55106 4.18372 7.70327 4.30728 7.81036 4.46581C7.91745 4.62433 7.97461 4.81071 7.97461 5.00137C7.97461 5.25704 7.87193 5.50223 7.68916 5.68302C7.50638 5.8638 7.25848 5.96536 7 5.96536Z" fill="white"/>
</svg>
