<svg width="12" height="12" viewBox="0 0 12 12" fill="none" xmlns="http://www.w3.org/2000/svg">
<path d="M11.7465 0.667883C11.669 0.603371 11.5785 0.557553 11.4816 0.533795C11.3847 0.510036 11.2839 0.508942 11.1865 0.530594L6 1.73187L0.813507 0.516865C0.714594 0.493861 0.611887 0.494397 0.513205 0.51843C0.414523 0.542464 0.322466 0.589361 0.24404 0.655554C0.165614 0.721747 0.102887 0.80549 0.0606325 0.90041C0.018378 0.99533 -0.00229009 1.09893 0.000201247 1.20331V9.57795C-0.00356505 9.73663 0.0461896 9.89175 0.140996 10.0169C0.235803 10.1421 0.369801 10.2295 0.520184 10.2644L5.85334 11.5H6.14666L11.4798 10.2644C11.6302 10.2295 11.7642 10.1421 11.859 10.0169C11.9538 9.89175 12.0036 9.73663 11.9998 9.57795V1.20331C11.9993 1.1002 11.9763 0.998527 11.9325 0.905833C11.8886 0.813139 11.825 0.731809 11.7465 0.667883ZM1.33349 2.06137L5.33336 2.98807V9.9555L1.33349 9.02879V2.06137ZM10.6665 9.02879L6.66665 9.9555V2.98807L10.6665 2.06137V9.02879Z" fill="#2A4054"/>
</svg>
