<svg width="14" height="14" viewBox="0 0 14 14" fill="none" xmlns="http://www.w3.org/2000/svg">
<path d="M3.92327 12.7185C2.91072 12.1308 2.10993 11.3304 1.52197 10.3183C0.934004 9.30621 0.640076 8.20006 0.640076 6.99999C0.640076 5.79992 0.934004 4.69376 1.52197 3.68174C2.10993 2.66961 2.91072 1.8702 3.92327 1.28149C4.93582 0.693847 6.04251 0.400024 7.2431 0.400024C7.52232 0.400024 7.79443 0.417813 8.06168 0.454448C8.17063 0.466307 8.25576 0.514801 8.31612 0.599824C8.37647 0.684954 8.39532 0.781942 8.37054 0.890683L8.07958 2.47267C8.04294 2.66665 7.92213 2.76353 7.71534 2.76353L7.24215 2.74574C6.478 2.74574 5.76933 2.93675 5.11402 3.31856C4.45872 3.70048 3.94106 4.21888 3.55904 4.87292C3.17691 5.52684 2.9859 6.23626 2.9859 6.99999C2.9859 7.76382 3.17691 8.47217 3.55904 9.12716C3.94106 9.78204 4.45978 10.2995 5.11402 10.6814C5.76827 11.0633 6.478 11.2542 7.24215 11.2542C8.12701 11.2542 8.90313 11.003 9.57018 10.4994C10.2373 9.99677 10.7283 9.32696 11.0431 8.48996H8.69623C8.59924 8.48996 8.51412 8.45333 8.4418 8.38112C8.36959 8.3089 8.33295 8.22388 8.33295 8.12689V6.80019C8.33295 6.7032 8.36959 6.61807 8.4418 6.54586C8.51507 6.47364 8.59924 6.43701 8.69623 6.43701H12.5704C12.8614 6.43701 13.0861 6.4855 13.2435 6.58249C13.4008 6.67948 13.48 6.81893 13.48 7.00094C13.48 8.21297 13.2127 9.32198 12.6792 10.3282C12.1458 11.3344 11.4024 12.1308 10.4511 12.7185C9.49893 13.3061 8.42899 13.5999 7.2412 13.5999C6.04145 13.5999 4.93487 13.3061 3.92327 12.7185Z" fill="#EDC666"/>
</svg>
