<svg width="10" height="12" viewBox="0 0 10 12" fill="none" xmlns="http://www.w3.org/2000/svg">
<path d="M5 5.33333C5.50858 5.33333 6.00574 5.17694 6.42861 4.88392C6.85148 4.5909 7.18107 4.17443 7.37569 3.68716C7.57032 3.19989 7.62124 2.66371 7.52202 2.14643C7.4228 1.62914 7.1779 1.15399 6.81827 0.781049C6.45865 0.408109 6.00047 0.154134 5.50166 0.0512404C5.00285 -0.0516535 4.48582 0.00115542 4.01596 0.202989C3.54609 0.404823 3.14449 0.746616 2.86194 1.18515C2.57938 1.62368 2.42857 2.13925 2.42857 2.66667C2.42857 3.37391 2.69949 4.05219 3.18173 4.55229C3.66396 5.05238 4.31801 5.33333 5 5.33333ZM5 1.33333C5.25429 1.33333 5.50287 1.41153 5.7143 1.55804C5.92574 1.70455 6.09053 1.91279 6.18785 2.15642C6.28516 2.40006 6.31062 2.66815 6.26101 2.92679C6.2114 3.18543 6.08895 3.42301 5.90914 3.60948C5.72933 3.79595 5.50023 3.92293 5.25083 3.97438C5.00143 4.02583 4.74291 3.99942 4.50798 3.89851C4.27305 3.79759 4.07224 3.62669 3.93097 3.40743C3.78969 3.18816 3.71429 2.93038 3.71429 2.66667C3.71429 2.31305 3.84974 1.97391 4.09086 1.72386C4.33198 1.47381 4.65901 1.33333 5 1.33333ZM5 6.66667C3.80653 6.66667 2.66193 7.15833 1.81802 8.0335C0.974106 8.90867 0.5 10.0957 0.5 11.3333C0.5 11.5101 0.56773 11.6797 0.688289 11.8047C0.808848 11.9298 0.972361 12 1.14286 12C1.31335 12 1.47687 11.9298 1.59743 11.8047C1.71798 11.6797 1.78571 11.5101 1.78571 11.3333C1.78571 10.4493 2.12436 9.60143 2.72716 8.97631C3.32995 8.35119 4.14752 8 5 8C5.85248 8 6.67005 8.35119 7.27284 8.97631C7.87564 9.60143 8.21429 10.4493 8.21429 11.3333C8.21429 11.5101 8.28201 11.6797 8.40257 11.8047C8.52313 11.9298 8.68665 12 8.85714 12C9.02764 12 9.19115 11.9298 9.31171 11.8047C9.43227 11.6797 9.5 11.5101 9.5 11.3333C9.5 10.0957 9.02589 8.90867 8.18198 8.0335C7.33807 7.15833 6.19347 6.66667 5 6.66667Z" fill="#2A4054"/>
</svg>
