<svg width="14" height="14" viewBox="0 0 14 14" fill="none" xmlns="http://www.w3.org/2000/svg">
<path d="M4.79868 13.4938C4.48154 13.4919 4.1736 13.387 3.92129 13.195L2.57596 12.1944C2.2655 11.9525 2.05951 11.6008 2.00028 11.2118C1.94106 10.8227 2.0331 10.4258 2.2575 10.1024C2.37623 9.92717 2.45169 9.72626 2.47768 9.51619C2.50366 9.30612 2.47943 9.09289 2.40698 8.894L2.36799 8.79005C2.31754 8.61003 2.22534 8.44443 2.09886 8.30671C1.97239 8.169 1.8152 8.06303 1.64008 7.99743H1.53609C1.15645 7.86982 0.842504 7.59765 0.662411 7.24002C0.482318 6.88239 0.450624 6.46818 0.574211 6.08734L1.10714 4.39814C1.1562 4.20243 1.24652 4.01946 1.37206 3.86147C1.4976 3.70348 1.65545 3.57413 1.83505 3.48208C2.00231 3.39593 2.18531 3.3446 2.37299 3.3312C2.56067 3.3178 2.74911 3.34261 2.92692 3.40412C3.12052 3.46925 3.3271 3.48613 3.52871 3.4533C3.73033 3.42046 3.92087 3.3389 4.08377 3.21571L4.16826 3.15074C4.31573 3.03311 4.4349 2.88391 4.51702 2.71412C4.59913 2.54433 4.64208 2.35829 4.6427 2.1697V2.01378C4.64096 1.61625 4.79638 1.23413 5.07513 0.950614C5.35388 0.667095 5.73338 0.505137 6.13102 0.5H7.78831C7.98178 0.500521 8.17323 0.539244 8.35169 0.613945C8.53014 0.688645 8.69207 0.797852 8.82818 0.935293C9.11434 1.22622 9.27329 1.61878 9.27013 2.02677V2.20869C9.26683 2.38784 9.30569 2.56526 9.38359 2.72664C9.46148 2.88802 9.57623 3.02884 9.71857 3.13774L9.79006 3.18972C9.93593 3.29906 10.1061 3.37153 10.286 3.40094C10.4659 3.43035 10.6503 3.41584 10.8234 3.35864L11.0444 3.28717C11.2316 3.22513 11.4294 3.20142 11.626 3.21746C11.8226 3.23349 12.0139 3.28894 12.1886 3.38049C12.3633 3.47205 12.5177 3.59784 12.6427 3.75035C12.7677 3.90287 12.8607 4.07899 12.9162 4.2682L13.4296 5.90542C13.5484 6.2838 13.5159 6.69347 13.339 7.04842C13.1621 7.40337 12.8545 7.67598 12.4807 7.80902L12.3507 7.8545C12.1596 7.91708 11.9867 8.02564 11.8473 8.17064C11.7079 8.31564 11.6063 8.49265 11.5513 8.6861C11.4996 8.86594 11.4873 9.05483 11.5154 9.23984C11.5434 9.42486 11.6111 9.60164 11.7138 9.75809L11.8828 10.005C12.1069 10.3301 12.1981 10.7286 12.1376 11.1188C12.0772 11.509 11.8698 11.8613 11.5578 12.1035L10.2515 13.1105C10.0937 13.2311 9.91282 13.3182 9.72007 13.3664C9.52731 13.4145 9.32673 13.4227 9.13068 13.3905C8.93464 13.3582 8.74727 13.2862 8.58012 13.1788C8.41297 13.0714 8.26958 12.931 8.15876 12.7662L8.08077 12.6557C7.97433 12.4958 7.82909 12.3655 7.65861 12.2768C7.48814 12.1882 7.29798 12.1442 7.1059 12.1489C6.9226 12.1537 6.74299 12.2014 6.58155 12.2883C6.42011 12.3752 6.28137 12.4989 6.17651 12.6492L6.02703 12.8636C5.91618 13.0296 5.7725 13.1712 5.60483 13.2796C5.43717 13.3879 5.24908 13.4609 5.05215 13.4938C4.96786 13.5021 4.88297 13.5021 4.79868 13.4938ZM2.06253 6.75002C2.42953 6.88084 2.76068 7.09596 3.02934 7.37807C3.298 7.66017 3.49666 8.00139 3.60933 8.37425V8.45221C3.74967 8.83984 3.79575 9.25527 3.74377 9.66422C3.69179 10.0732 3.54323 10.4639 3.31037 10.8041C3.26927 10.8495 3.24651 10.9085 3.24651 10.9698C3.24651 11.031 3.26927 11.09 3.31037 11.1354L4.7077 12.1944C4.72593 12.2087 4.74701 12.219 4.76953 12.2245C4.79205 12.23 4.81549 12.2306 4.83826 12.2263C4.86104 12.222 4.88263 12.2129 4.90159 12.1995C4.92054 12.1862 4.93643 12.1689 4.94816 12.1489L5.09765 11.9346C5.3231 11.6089 5.62417 11.3428 5.97507 11.1589C6.32597 10.9751 6.71623 10.8791 7.11239 10.8791C7.50856 10.8791 7.89882 10.9751 8.24972 11.1589C8.60062 11.3428 8.90169 11.6089 9.12714 11.9346L9.20513 12.0515C9.23307 12.0911 9.27478 12.1189 9.32212 12.1295C9.34383 12.1327 9.36596 12.1314 9.38719 12.1259C9.40841 12.1203 9.42828 12.1104 9.4456 12.097L10.7844 11.0835C10.8313 11.0463 10.8621 10.9926 10.8706 10.9333C10.8791 10.8741 10.8645 10.8139 10.8299 10.7651L10.661 10.5182C10.4408 10.1973 10.2955 9.831 10.2359 9.44642C10.1763 9.06185 10.2038 8.6688 10.3165 8.29629C10.4307 7.90476 10.6373 7.54639 10.9189 7.2513C11.2006 6.95622 11.5489 6.73306 11.9348 6.60059L12.0648 6.55511C12.1189 6.53342 12.1623 6.49119 12.1855 6.43763C12.2086 6.38407 12.2096 6.32354 12.1883 6.26925L11.6813 4.65152C11.6692 4.62322 11.6514 4.59768 11.629 4.57646C11.6067 4.55524 11.5802 4.53878 11.5513 4.52808C11.5322 4.51838 11.5111 4.51332 11.4896 4.51332C11.4681 4.51332 11.447 4.51838 11.4279 4.52808L11.2069 4.59955C10.8331 4.72287 10.4349 4.7536 10.0466 4.6891C9.6583 4.62459 9.29147 4.46678 8.97766 4.22922L8.95166 4.17075C8.65054 3.94279 8.40638 3.64815 8.23836 3.30997C8.07034 2.97179 7.98303 2.59927 7.98329 2.22168V2.02028C7.98446 1.95766 7.96114 1.89705 7.91829 1.85136C7.8809 1.81758 7.83221 1.79903 7.78181 1.79938H6.13102C6.10454 1.80103 6.07865 1.8079 6.05483 1.81958C6.03102 1.83126 6.00974 1.84752 5.99223 1.86744C5.97472 1.88736 5.96131 1.91055 5.95279 1.93566C5.94426 1.96077 5.94078 1.98732 5.94254 2.01378V2.1762C5.94258 2.56409 5.85353 2.94681 5.68226 3.29487C5.51099 3.64293 5.26206 3.94703 4.95466 4.18374L4.87017 4.24871C4.53854 4.50112 4.14989 4.66811 3.73847 4.73495C3.32705 4.8018 2.9055 4.76645 2.51097 4.63203C2.48145 4.62213 2.4495 4.62213 2.41998 4.63203C2.3833 4.65431 2.35568 4.68882 2.34199 4.72949L1.80256 6.42518C1.78375 6.48293 1.78816 6.54573 1.81484 6.60029C1.84153 6.65485 1.8884 6.6969 1.94554 6.71754L2.06253 6.75002Z" fill="#2A4054"/>
<path d="M7.00191 9.27082C6.55201 9.27082 6.11222 9.13746 5.73814 8.8876C5.36407 8.63774 5.07251 8.2826 4.90034 7.86709C4.72818 7.45159 4.68313 6.99438 4.7709 6.55329C4.85867 6.11219 5.07532 5.70702 5.39344 5.389C5.71157 5.07099 6.11688 4.85442 6.55813 4.76668C6.99938 4.67894 7.45675 4.72397 7.8724 4.89608C8.28805 5.06819 8.64332 5.35964 8.89327 5.73358C9.14322 6.10753 9.27662 6.54717 9.27662 6.9969C9.27662 7.59998 9.03697 8.17836 8.61038 8.60481C8.18378 9.03125 7.6052 9.27082 7.00191 9.27082ZM7.00191 6.02237C6.8091 6.02237 6.62061 6.07952 6.4603 6.18661C6.29998 6.29369 6.17502 6.44589 6.10124 6.62397C6.02745 6.80204 6.00815 6.99799 6.04576 7.18703C6.08338 7.37607 6.17623 7.54971 6.31257 7.68601C6.4489 7.8223 6.62261 7.91511 6.81172 7.95271C7.00083 7.99032 7.19684 7.97102 7.37498 7.89726C7.55311 7.8235 7.70537 7.69859 7.81249 7.53833C7.91961 7.37807 7.97679 7.18965 7.97679 6.9969C7.97679 6.73844 7.87408 6.49056 7.69125 6.3078C7.50843 6.12504 7.26046 6.02237 7.00191 6.02237Z" fill="#2A4054"/>
</svg>
