<svg width="12" height="14" viewBox="0 0 12 14" fill="none" xmlns="http://www.w3.org/2000/svg">
<path d="M11.11 0.74036C11.1697 0.806854 11.2 0.889337 11.2 0.986643V13.0313C11.2 13.1286 11.1697 13.2081 11.11 13.2687C11.0504 13.3292 10.978 13.36 10.8939 13.36H9.1151C9.03103 13.36 8.95966 13.3302 8.89899 13.2687C8.83938 13.2081 8.8091 13.1286 8.8091 13.0313V5.80429C8.8091 5.69502 8.78464 5.64038 8.73763 5.64038C8.70152 5.64038 8.64773 5.68316 8.57626 5.7685C8.38461 6.06052 8.06972 6.51635 7.63264 7.13703C7.19545 7.75782 6.87473 8.20771 6.67133 8.48777C6.55105 8.64564 6.45226 8.74993 6.37507 8.79758C6.29683 8.84628 6.16871 8.87106 5.98881 8.87106H5.68366C5.46753 8.87106 5.32086 8.85317 5.24359 8.81643C5.16537 8.77968 5.07833 8.70123 4.98347 8.57914L3.02472 5.78639C2.97681 5.67712 2.92302 5.62259 2.86337 5.62259C2.81546 5.62259 2.79101 5.67712 2.79101 5.78639V8.04973C2.79101 8.14704 2.76069 8.22656 2.70104 8.28712C2.64138 8.34769 2.56902 8.3785 2.48492 8.3785H0.723707C0.639615 8.3785 0.565286 8.34472 0.498792 8.27812C0.433272 8.21163 0.400024 8.13518 0.400024 8.04973V0.986643C0.400024 0.889337 0.433272 0.806854 0.498792 0.74036C0.564312 0.67376 0.639615 0.639984 0.723707 0.639984H2.5211C2.55728 0.639984 2.60227 0.661902 2.65606 0.703619C2.70984 0.74629 2.74896 0.791926 2.77242 0.840631L5.50372 5.42099C5.51546 5.44577 5.5487 5.48156 5.60245 5.53016C5.65624 5.57886 5.72474 5.60364 5.80881 5.60364H5.82639C5.91057 5.60364 5.976 5.57389 6.02397 5.51226C6.07193 5.4517 6.10221 5.40903 6.11397 5.38415L8.82763 0.858525C8.86384 0.797961 8.89994 0.74629 8.9352 0.703619C8.97142 0.660843 9.01927 0.639984 9.07899 0.639984H9.09657H10.8939C10.978 0.639984 11.0495 0.67376 11.11 0.74036Z" fill="#EDC666"/>
</svg>
