<svg width="15" height="18" viewBox="0 0 15 18" fill="none" xmlns="http://www.w3.org/2000/svg">
<path d="M14.48 0.653854C14.5596 0.742513 14.6 0.85249 14.6 0.982231V17.0417C14.6 17.1715 14.5596 17.2775 14.48 17.3583C14.4005 17.439 14.3039 17.4801 14.1919 17.4801H11.8201C11.708 17.4801 11.6128 17.4403 11.5319 17.3583C11.4525 17.2775 11.4121 17.1715 11.4121 17.0417V7.40576C11.4121 7.26006 11.3795 7.18721 11.3168 7.18721C11.2687 7.18721 11.1969 7.24425 11.1016 7.35804C10.8461 7.7474 10.4263 8.35517 9.84348 9.18274C9.26056 10.0105 8.83294 10.6103 8.56174 10.9837C8.40136 11.1942 8.26964 11.3333 8.16672 11.3968C8.0624 11.4618 7.89157 11.4948 7.65171 11.4948H7.24484C6.95667 11.4948 6.7611 11.4709 6.65808 11.4219C6.55378 11.373 6.43774 11.2683 6.31126 11.1056L3.69959 7.3819C3.63571 7.2362 3.56399 7.1635 3.48445 7.1635C3.42057 7.1635 3.38797 7.2362 3.38797 7.3819V10.3997C3.38797 10.5294 3.34755 10.6354 3.26801 10.7162C3.18847 10.797 3.09199 10.838 2.97986 10.838H0.63157C0.519447 10.838 0.420341 10.793 0.331683 10.7042C0.244323 10.6155 0.199993 10.5136 0.199993 10.3997V0.982231C0.199993 0.85249 0.244323 0.742513 0.331683 0.653854C0.419043 0.565055 0.519447 0.52002 0.63157 0.52002H3.0281C3.07634 0.52002 3.13632 0.549243 3.20804 0.604866C3.27974 0.66176 3.33191 0.722608 3.36319 0.787549L7.00493 6.8947C7.02057 6.92773 7.0649 6.97545 7.13656 7.04025C7.20828 7.10519 7.29962 7.13823 7.41171 7.13823H7.43515C7.54738 7.13823 7.63463 7.09856 7.69858 7.01639C7.76254 6.93564 7.80291 6.87874 7.81858 6.84557L11.4368 0.811408C11.4851 0.730655 11.5332 0.66176 11.5802 0.604866C11.6285 0.547831 11.6923 0.52002 11.7719 0.52002H11.7954H14.1919C14.3039 0.52002 14.3992 0.565055 14.48 0.653854Z" fill="#EDC666"/>
</svg>
