<svg width="12" height="12" viewBox="0 0 12 12" fill="none" xmlns="http://www.w3.org/2000/svg">
<path d="M11.3333 5.33333C11.1565 5.33333 10.987 5.40357 10.8619 5.5286C10.7369 5.65362 10.6667 5.82319 10.6667 6V10C10.6667 10.1768 10.5964 10.3464 10.4714 10.4714C10.3464 10.5964 10.1768 10.6667 10 10.6667H2C1.82319 10.6667 1.65362 10.5964 1.5286 10.4714C1.40357 10.3464 1.33333 10.1768 1.33333 10V2C1.33333 1.82319 1.40357 1.65362 1.5286 1.5286C1.65362 1.40357 1.82319 1.33333 2 1.33333H6C6.17681 1.33333 6.34638 1.2631 6.4714 1.13807C6.59643 1.01305 6.66667 0.843478 6.66667 0.666667C6.66667 0.489856 6.59643 0.320286 6.4714 0.195262C6.34638 0.0702379 6.17681 0 6 0H2C1.46957 0 0.960859 0.210714 0.585787 0.585787C0.210714 0.960859 0 1.46957 0 2V10C0 10.5304 0.210714 11.0391 0.585787 11.4142C0.960859 11.7893 1.46957 12 2 12H10C10.5304 12 11.0391 11.7893 11.4142 11.4142C11.7893 11.0391 12 10.5304 12 10V6C12 5.82319 11.9298 5.65362 11.8047 5.5286C11.6797 5.40357 11.5101 5.33333 11.3333 5.33333Z" fill="#2A4054"/>
<path d="M8.50203 1.40059H9.60739L5.20694 5.79844C5.14137 5.86354 5.08932 5.94099 5.0538 6.02633C5.01829 6.11167 5 6.2032 5 6.29565C5 6.38809 5.01829 6.47962 5.0538 6.56496C5.08932 6.6503 5.14137 6.72775 5.20694 6.79285C5.27198 6.85849 5.34935 6.91059 5.4346 6.94614C5.51986 6.9817 5.6113 7 5.70365 7C5.79601 7 5.88745 6.9817 5.9727 6.94614C6.05795 6.91059 6.13533 6.85849 6.20036 6.79285L10.6008 2.39501V3.50147C10.6008 3.6872 10.6745 3.86532 10.8057 3.99665C10.9369 4.12798 11.1149 4.20177 11.3004 4.20177C11.4859 4.20177 11.6639 4.12798 11.7951 3.99665C11.9263 3.86532 12 3.6872 12 3.50147V0.700294C12 0.514565 11.9263 0.336442 11.7951 0.205111C11.6639 0.0737808 11.4859 0 11.3004 0H8.50203C8.31648 0 8.13854 0.0737808 8.00734 0.205111C7.87614 0.336442 7.80243 0.514565 7.80243 0.700294C7.80243 0.886024 7.87614 1.06415 8.00734 1.19548C8.13854 1.32681 8.31648 1.40059 8.50203 1.40059Z" fill="#2A4054"/>
</svg>
