<svg width="12" height="12" viewBox="0 0 12 12" fill="none" xmlns="http://www.w3.org/2000/svg">
<path d="M7.40864 5.99829L11.7045 1.71243C11.8926 1.52431 11.9983 1.26916 11.9983 1.00312C11.9983 0.737074 11.8926 0.481926 11.7045 0.293804C11.5164 0.105682 11.2612 -3.8147e-06 10.9952 -3.8147e-06C10.7291 -3.8147e-06 10.474 0.105682 10.2859 0.293804L6 4.58965L1.71414 0.293804C1.52602 0.105682 1.27087 -3.81668e-06 1.00483 -3.8147e-06C0.738783 -3.81272e-06 0.483635 0.105682 0.295513 0.293804C0.107391 0.481926 0.00170495 0.737074 0.00170495 1.00312C0.00170495 1.26916 0.107391 1.52431 0.295513 1.71243L4.59136 5.99829L0.295513 10.2841C0.201875 10.377 0.127553 10.4875 0.0768329 10.6093C0.0261132 10.731 0 10.8616 0 10.9935C0 11.1253 0.0261132 11.2559 0.0768329 11.3777C0.127553 11.4994 0.201875 11.6099 0.295513 11.7028C0.388386 11.7964 0.49888 11.8707 0.620622 11.9215C0.742363 11.9722 0.872943 11.9983 1.00483 11.9983C1.13671 11.9983 1.26729 11.9722 1.38903 11.9215C1.51077 11.8707 1.62127 11.7964 1.71414 11.7028L6 7.40693L10.2859 11.7028C10.3787 11.7964 10.4892 11.8707 10.611 11.9215C10.7327 11.9722 10.8633 11.9983 10.9952 11.9983C11.1271 11.9983 11.2576 11.9722 11.3794 11.9215C11.5011 11.8707 11.6116 11.7964 11.7045 11.7028C11.7981 11.6099 11.8724 11.4994 11.9232 11.3777C11.9739 11.2559 12 11.1253 12 10.9935C12 10.8616 11.9739 10.731 11.9232 10.6093C11.8724 10.4875 11.7981 10.377 11.7045 10.2841L7.40864 5.99829Z" fill="white"/>
</svg>
