<svg width="19" height="18" viewBox="0 0 19 18" fill="none" xmlns="http://www.w3.org/2000/svg">
<path d="M17.5 8C17.2348 8 16.9804 8.10536 16.7929 8.29289C16.6054 8.48043 16.5 8.73478 16.5 9V15C16.5 15.2652 16.3946 15.5196 16.2071 15.7071C16.0196 15.8946 15.7652 16 15.5 16H3.5C3.23478 16 2.98043 15.8946 2.79289 15.7071C2.60536 15.5196 2.5 15.2652 2.5 15V3C2.5 2.73478 2.60536 2.48043 2.79289 2.29289C2.98043 2.10536 3.23478 2 3.5 2H9.5C9.76522 2 10.0196 1.89464 10.2071 1.70711C10.3946 1.51957 10.5 1.26522 10.5 1C10.5 0.734784 10.3946 0.48043 10.2071 0.292893C10.0196 0.105357 9.76522 0 9.5 0H3.5C2.70435 0 1.94129 0.316071 1.37868 0.87868C0.816071 1.44129 0.5 2.20435 0.5 3V15C0.5 15.7956 0.816071 16.5587 1.37868 17.1213C1.94129 17.6839 2.70435 18 3.5 18H15.5C16.2956 18 17.0587 17.6839 17.6213 17.1213C18.1839 16.5587 18.5 15.7956 18.5 15V9C18.5 8.73478 18.3946 8.48043 18.2071 8.29289C18.0196 8.10536 17.7652 8 17.5 8Z" fill="#F6F8F9"/>
<path d="M13.5 2H15.08L8.79 8.28C8.69627 8.37296 8.62188 8.48356 8.57111 8.60542C8.52034 8.72728 8.4942 8.85799 8.4942 8.99C8.4942 9.12201 8.52034 9.25272 8.57111 9.37458C8.62188 9.49644 8.69627 9.60704 8.79 9.7C8.88296 9.79373 8.99356 9.86812 9.11542 9.91889C9.23728 9.96966 9.36799 9.9958 9.5 9.9958C9.63201 9.9958 9.76272 9.96966 9.88458 9.91889C10.0064 9.86812 10.117 9.79373 10.21 9.7L16.5 3.42V5C16.5 5.26522 16.6054 5.51957 16.7929 5.70711C16.9804 5.89464 17.2348 6 17.5 6C17.7652 6 18.0196 5.89464 18.2071 5.70711C18.3946 5.51957 18.5 5.26522 18.5 5V1C18.5 0.734784 18.3946 0.48043 18.2071 0.292893C18.0196 0.105357 17.7652 0 17.5 0H13.5C13.2348 0 12.9804 0.105357 12.7929 0.292893C12.6054 0.48043 12.5 0.734784 12.5 1C12.5 1.26522 12.6054 1.51957 12.7929 1.70711C12.9804 1.89464 13.2348 2 13.5 2Z" fill="#F6F8F9"/>
</svg>
